<svg viewBox="0 0 1400 900" xmlns="http://www.w3.org/2000/svg">
  <!-- Background -->
  <rect width="1400" height="900" fill="#f5f5f5"/>
  
  <!-- Main pipeline boxes -->
  <!-- Box 1: Data Aggregation -->
  <rect x="50" y="100" width="220" height="80" fill="#e8f4f8" stroke="#0288d1" stroke-width="2" rx="5"/>
  <text x="160" y="145" font-size="16" font-weight="bold" text-anchor="middle" fill="#0288d1">1) Data Aggregation</text>
  
  <!-- Arrow 1 -->
  <path d="M 270 140 L 370 140" stroke="#666" stroke-width="2" fill="none" marker-end="url(#arrowhead)"/>
  
  <!-- Box 2: Cleaning and EDA -->
  <rect x="370" y="100" width="220" height="80" fill="#fff3e0" stroke="#f57c00" stroke-width="2" rx="5"/>
  <text x="480" y="145" font-size="16" font-weight="bold" text-anchor="middle" fill="#f57c00">2) Cleaning and EDA</text>
  
  <!-- Arrow 2 -->
  <path d="M 590 140 L 690 140" stroke="#666" stroke-width="2" fill="none" marker-end="url(#arrowhead)"/>
  
  <!-- Box 3: Feature Engineering -->
  <rect x="690" y="100" width="220" height="80" fill="#f3e5f5" stroke="#8e24aa" stroke-width="2" rx="5"/>
  <text x="800" y="145" font-size="16" font-weight="bold" text-anchor="middle" fill="#8e24aa">3) Feature Engineering</text>
  
  <!-- Arrow 3 -->
  <path d="M 910 140 L 1010 140" stroke="#666" stroke-width="2" fill="none" marker-end="url(#arrowhead)"/>
  
  <!-- Box 4: Modeling -->
  <rect x="1010" y="100" width="220" height="80" fill="#e8f5e9" stroke="#388e3c" stroke-width="2" rx="5"/>
  <text x="1120" y="145" font-size="16" font-weight="bold" text-anchor="middle" fill="#388e3c">4) Modeling</text>
  
  <!-- Cleaning and EDA Sub-items -->
  <!-- Left side bubble container -->
  <ellipse cx="300" cy="350" rx="130" ry="150" fill="none" stroke="#f57c00" stroke-width="2" stroke-dasharray="5,5" opacity="0.6"/>
  
  <!-- Left side items -->
  <circle cx="200" cy="250" r="35" fill="#fff9e6" stroke="#f57c00" stroke-width="2"/>
  <text x="200" y="255" font-size="12" text-anchor="middle" fill="#333">Univariate</text>
  
  <circle cx="280" cy="280" r="35" fill="#fff9e6" stroke="#f57c00" stroke-width="2"/>
  <text x="280" y="285" font-size="12" text-anchor="middle" fill="#333">Bivariate</text>
  
  <circle cx="250" cy="350" r="35" fill="#fff9e6" stroke="#f57c00" stroke-width="2"/>
  <text x="250" y="355" font-size="11" text-anchor="middle" fill="#333">Missing Val</text>
  
  <circle cx="320" cy="380" r="35" fill="#fff9e6" stroke="#f57c00" stroke-width="2"/>
  <text x="320" y="385" font-size="12" text-anchor="middle" fill="#333">Outliers</text>
  
  <circle cx="280" cy="450" r="35" fill="#fff9e6" stroke="#f57c00" stroke-width="2"/>
  <text x="280" y="455" font-size="11" text-anchor="middle" fill="#333">Variable Sel</text>
  
  <circle cx="200" cy="480" r="35" fill="#fff9e6" stroke="#f57c00" stroke-width="2"/>
  <text x="200" y="485" font-size="12" text-anchor="middle" fill="#333">Grid Search</text>
  
  <!-- Right side items -->
  <circle cx="450" cy="280" r="40" fill="#fce4ec" stroke="#c2185b" stroke-width="2"/>
  <text x="450" y="285" font-size="11" text-anchor="middle" fill="#333">Correlation</text>
  <text x="450" y="298" font-size="11" text-anchor="middle" fill="#333">Matrix</text>
  
  <circle cx="510" cy="360" r="40" fill="#fce4ec" stroke="#c2185b" stroke-width="2"/>
  <text x="510" y="358" font-size="11" text-anchor="middle" fill="#333">Time Series</text>
  <text x="510" y="371" font-size="11" text-anchor="middle" fill="#333">Plot</text>
  
  <circle cx="450" cy="450" r="40" fill="#fce4ec" stroke="#c2185b" stroke-width="2"/>
  <text x="450" y="448" font-size="11" text-anchor="middle" fill="#333">Geographic</text>
  <text x="450" y="461" font-size="11" text-anchor="middle" fill="#333">Plot</text>
  
  <!-- Arrows from Cleaning and EDA to sub-items -->
  <path d="M 430 180 L 350 250" stroke="#f57c00" stroke-width="1.5" stroke-dasharray="3,3" fill="none" opacity="0.6"/>
  <path d="M 480 180 L 480 280" stroke="#c2185b" stroke-width="1.5" stroke-dasharray="3,3" fill="none" opacity="0.6"/>
  
  <!-- Feature Engineering sub-items -->
  <rect x="700" y="250" width="220" height="80" fill="#f3e5f5" stroke="#8e24aa" stroke-width="1" rx="3"/>
  <text x="810" y="270" font-size="12" text-anchor="middle" fill="#333" font-weight="bold">Techniques:</text>
  <text x="810" y="290" font-size="11" text-anchor="middle" fill="#555">• Log transformation</text>
  <text x="810" y="310" font-size="11" text-anchor="middle" fill="#555">• Moving average</text>
  
  <!-- Arrow from Feature Engineering to sub-items -->
  <path d="M 800 180 L 810 250" stroke="#8e24aa" stroke-width="1.5" stroke-dasharray="3,3" fill="none" opacity="0.6"/>
  
  <!-- Modeling sub-components -->
  <circle cx="950" cy="350" r="45" fill="#e8f5e9" stroke="#388e3c" stroke-width="2"/>
  <text x="950" y="355" font-size="13" text-anchor="middle" fill="#333" font-weight="bold">Stuff</text>
  
  <circle cx="1050" cy="380" r="45" fill="#e8f5e9" stroke="#388e3c" stroke-width="2"/>
  <text x="1050" y="385" font-size="13" text-anchor="middle" fill="#333" font-weight="bold">RNN</text>
  
  <circle cx="1150" cy="350" r="45" fill="#e8f5e9" stroke="#388e3c" stroke-width="2"/>
  <text x="1150" y="355" font-size="13" text-anchor="middle" fill="#333" font-weight="bold">PostNet</text>
  
  <circle cx="1120" cy="480" r="45" fill="#e8f5e9" stroke="#388e3c" stroke-width="2"/>
  <text x="1120" y="485" font-size="13" text-anchor="middle" fill="#333" font-weight="bold">AQ</text>
  
  <!-- Arrows from Modeling to sub-components -->
  <path d="M 1080 180 L 950 305" stroke="#388e3c" stroke-width="1.5" stroke-dasharray="3,3" fill="none" opacity="0.6"/>
  <path d="M 1100 180 L 1050 335" stroke="#388e3c" stroke-width="1.5" stroke-dasharray="3,3" fill="none" opacity="0.6"/>
  <path d="M 1130 180 L 1150 305" stroke="#388e3c" stroke-width="1.5" stroke-dasharray="3,3" fill="none" opacity="0.6"/>
  <path d="M 1120 180 L 1120 435" stroke="#388e3c" stroke-width="1.5" stroke-dasharray="3,3" fill="none" opacity="0.6"/>
  
  <!-- Title -->
  <text x="700" y="30" font-size="24" font-weight="bold" text-anchor="middle" fill="#333">Machine Learning Pipeline</text>
  
  <!-- Arrow marker definition -->
  <defs>
    <marker id="arrowhead" markerWidth="10" markerHeight="10" refX="9" refY="3" orient="auto">
      <polygon points="0 0, 10 3, 0 6" fill="#666"/>
    </marker>
  </defs>
</svg>