<svg viewBox="0 0 1400 900" xmlns="http://www.w3.org/2000/svg">
  <!-- Background -->
  <rect width="1400" height="900" fill="#f5f5f5"/>
  
  <!-- Main pipeline boxes -->
  <!-- Box 1: Data Aggregation -->
  <rect x="50" y="100" width="220" height="80" fill="#e8f4f8" stroke="#0288d1" stroke-width="2" rx="5"/>
  <text x="160" y="145" font-size="16" font-weight="bold" text-anchor="middle" fill="#0288d1">1) Data Aggregation</text>
  
  <!-- Arrow 1 -->
  <path d="M 270 140 L 370 140" stroke="#666" stroke-width="2" fill="none" marker-end="url(#arrowhead)"/>
  
  <!-- Box 2: Cleaning and EDA -->
  <rect x="370" y="100" width="220" height="80" fill="#fff3e0" stroke="#f57c00" stroke-width="2" rx="5"/>
  <text x="480" y="145" font-size="16" font-weight="bold" text-anchor="middle" fill="#f57c00">2) Cleaning and EDA</text>
  
  <!-- Arrow 2 -->
  <path d="M 590 140 L 690 140" stroke="#666" stroke-width="2" fill="none" marker-end="url(#arrowhead)"/>
  
  <!-- Box 3: Feature Engineering -->
  <rect x="690" y="100" width="220" height="80" fill="#f3e5f5" stroke="#8e24aa" stroke-width="2" rx="5"/>
  <text x="800" y="145" font-size="16" font-weight="bold" text-anchor="middle" fill="#8e24aa">3) Feature Engineering</text>
  
  <!-- Arrow 3 -->
  <path d="M 910 140 L 1010 140" stroke="#666" stroke-width="2" fill="none" marker-end="url(#arrowhead)"/>
  
  <!-- Box 4: Modeling -->
  <rect x="1010" y="100" width="220" height="80" fill="#e8f5e9" stroke="#388e3c" stroke-width="2" rx="5"/>
  <text x="1120" y="145" font-size="16" font-weight="bold" text-anchor="middle" fill="#388e3c">4) Modeling</text>
  
  <!-- Cleaning and EDA Sub-items -->
  <!-- LEFT COLUMN -->
  <circle cx="200" cy="260" r="35" fill="#fff9e6" stroke="#f57c00" stroke-width="2"/>
  <text x="200" y="265" font-size="12" text-anchor="middle" fill="#333">Univariate</text>
  
  <circle cx="200" cy="340" r="35" fill="#fff9e6" stroke="#f57c00" stroke-width="2"/>
  <text x="200" y="345" font-size="12" text-anchor="middle" fill="#333">Bivariate</text>
  
  <circle cx="200" cy="420" r="35" fill="#fff9e6" stroke="#f57c00" stroke-width="2"/>
  <text x="200" y="425" font-size="11" text-anchor="middle" fill="#333">Missing Val</text>
  
  <circle cx="200" cy="500" r="35" fill="#fff9e6" stroke="#f57c00" stroke-width="2"/>
  <text x="200" y="505" font-size="12" text-anchor="middle" fill="#333">Outliers</text>
  
  <circle cx="200" cy="580" r="35" fill="#fff9e6" stroke="#f57c00" stroke-width="2"/>
  <text x="200" y="585" font-size="11" text-anchor="middle" fill="#333">Variable Sel</text>
  
  <circle cx="200" cy="660" r="35" fill="#fff9e6" stroke="#f57c00" stroke-width="2"/>
  <text x="200" y="665" font-size="12" text-anchor="middle" fill="#333">Grid Search</text>
  
  <!-- RIGHT COLUMN -->
  <circle cx="520" cy="320" r="40" fill="#fce4ec" stroke="#c2185b" stroke-width="2"/>
  <text x="520" y="315" font-size="11" text-anchor="middle" fill="#333">Correlation</text>
  <text x="520" y="328" font-size="11" text-anchor="middle" fill="#333">Matrix</text>
  
  <circle cx="520" cy="430" r="40" fill="#fce4ec" stroke="#c2185b" stroke-width="2"/>
  <text x="520" y="425" font-size="11" text-anchor="middle" fill="#333">Time Series</text>
  <text x="520" y="438" font-size="11" text-anchor="middle" fill="#333">Plot</text>
  
  <circle cx="520" cy="540" r="40" fill="#fce4ec" stroke="#c2185b" stroke-width="2"/>
  <text x="520" y="535" font-size="11" text-anchor="middle" fill="#333">Geospatial</text>
  <text x="520" y="548" font-size="11" text-anchor="middle" fill="#333">Plot</text>
  
  <!-- Arrows from Cleaning and EDA to sub-items -->
  <path d="M 420 160 L 280 260" stroke="#f57c00" stroke-width="1.5" stroke-dasharray="3,3" fill="none" opacity="0.6"/>
  <path d="M 470 160 L 450 320" stroke="#c2185b" stroke-width="1.5" stroke-dasharray="3,3" fill="none" opacity="0.6"/>
  
  <!-- Feature Engineering sub-items -->
  <rect x="700" y="250" width="220" height="80" fill="#f3e5f5" stroke="#8e24aa" stroke-width="1" rx="3"/>
  <text x="810" y="270" font-size="12" text-anchor="middle" fill="#333" font-weight="bold">Techniques:</text>
  <text x="810" y="290" font-size="11" text-anchor="middle" fill="#555">• Log transformation</text>
  <text x="810" y="310" font-size="11" text-anchor="middle" fill="#555">• Moving average</text>
  
  <!-- Arrow from Feature Engineering to sub-items -->
  <path d="M 800 180 L 810 250" stroke="#8e24aa" stroke-width="1.5" stroke-dasharray="3,3" fill="none" opacity="0.6"/>
  
  <!-- Modeling sub-components -->
  <circle cx="950" cy="350" r="50" fill="#e8f5e9" stroke="#388e3c" stroke-width="2"/>
  <text x="950" y="348" font-size="12" text-anchor="middle" fill="#333" font-weight="bold">SARIMA</text>
  <text x="950" y="363" font-size="10" text-anchor="middle" fill="#666">(Statistical)</text>
  
  <circle cx="1120" cy="280" r="50" fill="#e8f5e9" stroke="#388e3c" stroke-width="2"/>
  <text x="1120" y="278" font-size="12" text-anchor="middle" fill="#333" font-weight="bold">LSTM RNN</text>
  <text x="1120" y="293" font-size="10" text-anchor="middle" fill="#666">(Deep Learning)</text>
  
  <circle cx="1120" cy="440" r="50" fill="#e8f5e9" stroke="#388e3c" stroke-width="2"/>
  <text x="1120" y="438" font-size="12" text-anchor="middle" fill="#333" font-weight="bold">Prophet</text>
  <text x="1120" y="453" font-size="10" text-anchor="middle" fill="#666">(Time Series)</text>
  
  <!-- Arrows from Modeling to sub-components -->
  <path d="M 1050 180 L 950 300" stroke="#388e3c" stroke-width="1.5" stroke-dasharray="3,3" fill="none" opacity="0.6"/>
  <path d="M 1100 180 L 1120 230" stroke="#388e3c" stroke-width="1.5" stroke-dasharray="3,3" fill="none" opacity="0.6"/>
  <path d="M 1120 180 L 1120 390" stroke="#388e3c" stroke-width="1.5" stroke-dasharray="3,3" fill="none" opacity="0.6"/>
  
  <!-- Title -->
  <text x="700" y="30" font-size="24" font-weight="bold" text-anchor="middle" fill="#333">Machine Learning Pipeline</text>
  
  <!-- Arrow marker definition -->
  <defs>
    <marker id="arrowhead" markerWidth="10" markerHeight="10" refX="9" refY="3" orient="auto">
      <polygon points="0 0, 10 3, 0 6" fill="#666"/>
    </marker>
  </defs>
</svg>